# xmcd CD database file
#
# Track frame offsets:
#	150
#	16560
#	41902
#	78812
#	101500
#	129701
#	173032
#	186464
#	236515
#	258535
#
# Disc length: 3721 seconds
#
# Revision: 0
# Processed by: cddbd v1.4PL0 Copyright (c) Steve Scherf et al.
# Submitted via: CDex 1.50
#
DISCID=7b0e870a
DTITLE=Andy Egert Blues Band - Live
DYEAR=1999
DGENRE=Blues
TTITLE0=I'am tore down
TTITLE1=stones in my passion
TTITLE2=the blues
TTITLE3=i believe i'll dust my broom
TTITLE4=going down
TTITLE5=help me
TTITLE6=key to the higway
TTITLE7=red house
TTITLE8=blues jam
TTITLE9=i'd rather go blind
EXTD=YEAR: 1999
EXTT0=
EXTT1=
EXTT2=
EXTT3=
EXTT4=
EXTT5=
EXTT6=
EXTT7=
EXTT8=
EXTT9=
PLAYORDER=
